REM DIRINDEX 1\2\6,1\2\7,1\2\8,1\3\9,1\3\10,1\3\11,1\4\12,1\4\13,1\4\14,1\5\15,1\5\16,1\5\17,1\5\18
REM DIRNAME cjc019,folder01,folder02,folder03,folder04,folder05,folder06,folder07,folder08,folder09,folder10,folder11,folder12,folder13,folder14,folder15,folder16,folder17
TITLE ""
FILE "2Q_t_0600-0617.mp3" MP3
  TRACK 01 AUDIO
    TITLE "13:cjc019_3259"
    INDEX 01 00:00:00
  TRACK 02 AUDIO
    TITLE "0:"
    INDEX 01 00:01:13
  TRACK 03 AUDIO
    TITLE "14:cjc019_3260"
    INDEX 01 00:01:68
  TRACK 04 AUDIO
    TITLE "0:"
    INDEX 01 00:05:10
  TRACK 05 AUDIO
    TITLE "13:cjc019_3261"
    INDEX 01 00:05:59
  TRACK 06 AUDIO
    TITLE "0:"
    INDEX 01 00:07:00
  TRACK 07 AUDIO
    TITLE "14:cjc019_3262"
    INDEX 01 00:07:58
  TRACK 08 AUDIO
    TITLE "0:"
    INDEX 01 00:10:27
  TRACK 09 AUDIO
    TITLE "13:cjc019_3263"
    INDEX 01 00:11:09
  TRACK 10 AUDIO
    TITLE "0:"
    INDEX 01 00:12:42
  TRACK 11 AUDIO
    TITLE "14:cjc019_3264"
    INDEX 01 00:13:24
  TRACK 12 AUDIO
    TITLE "0:"
    INDEX 01 00:14:11
  TRACK 13 AUDIO
    TITLE "13:cjc019_3265"
    INDEX 01 00:14:62
  TRACK 14 AUDIO
    TITLE "0:"
    INDEX 01 00:16:08
  TRACK 15 AUDIO
    TITLE "14:cjc019_3266"
    INDEX 01 00:16:57
  TRACK 16 AUDIO
    TITLE "0:"
    INDEX 01 00:20:22
  TRACK 17 AUDIO
    TITLE "13:cjc019_3267"
    INDEX 01 00:21:02
  TRACK 18 AUDIO
    TITLE "0:"
    INDEX 01 00:22:25
  TRACK 19 AUDIO
    TITLE "14:cjc019_3268"
    INDEX 01 00:23:08
  TRACK 20 AUDIO
    TITLE "0:"
    INDEX 01 00:25:05
  TRACK 21 AUDIO
    TITLE "13:cjc019_3269"
    INDEX 01 00:25:60
  TRACK 22 AUDIO
    TITLE "0:"
    INDEX 01 00:26:66
  TRACK 23 AUDIO
    TITLE "14:cjc019_3270"
    INDEX 01 00:27:55
  TRACK 24 AUDIO
    TITLE "0:"
    INDEX 01 00:30:73
  TRACK 25 AUDIO
    TITLE "13:cjc019_3271"
    INDEX 01 00:31:59
  TRACK 26 AUDIO
    TITLE "0:"
    INDEX 01 00:32:70
  TRACK 27 AUDIO
    TITLE "14:cjc019_3272"
    INDEX 01 00:33:54
  TRACK 28 AUDIO
    TITLE "0:"
    INDEX 01 00:35:63
  TRACK 29 AUDIO
    TITLE "13:cjc019_3273"
    INDEX 01 00:36:40
  TRACK 30 AUDIO
    TITLE "0:"
    INDEX 01 00:37:67
  TRACK 31 AUDIO
    TITLE "14:cjc019_3274"
    INDEX 01 00:38:49
  TRACK 32 AUDIO
    TITLE "0:"
    INDEX 01 00:41:24
  TRACK 33 AUDIO
    TITLE "13:cjc019_3275"
    INDEX 01 00:42:00
  TRACK 34 AUDIO
    TITLE "0:"
    INDEX 01 00:43:13
  TRACK 35 AUDIO
    TITLE "14:cjc019_3276"
    INDEX 01 00:44:01
  TRACK 36 AUDIO
    TITLE "0:"
    INDEX 01 00:47:64
  TRACK 37 AUDIO
    TITLE "13:cjc019_3277"
    INDEX 01 00:48:42
  TRACK 38 AUDIO
    TITLE "0:"
    INDEX 01 00:50:07
  TRACK 39 AUDIO
    TITLE "14:cjc019_3278"
    INDEX 01 00:50:60
  TRACK 40 AUDIO
    TITLE "0:"
    INDEX 01 00:51:67
  TRACK 41 AUDIO
    TITLE "13:cjc019_3279"
    INDEX 01 00:52:41
  TRACK 42 AUDIO
    TITLE "0:"
    INDEX 01 00:53:57
  TRACK 43 AUDIO
    TITLE "14:cjc019_3280"
    INDEX 01 00:54:40
  TRACK 44 AUDIO
    TITLE "0:"
    INDEX 01 00:55:51
  TRACK 45 AUDIO
    TITLE "13:cjc019_3281"
    INDEX 01 00:56:33
  TRACK 46 AUDIO
    TITLE "0:"
    INDEX 01 00:57:50
  TRACK 47 AUDIO
    TITLE "14:cjc019_3282"
    INDEX 01 00:58:26
  TRACK 48 AUDIO
    TITLE "0:"
    INDEX 01 01:00:39
  TRACK 49 AUDIO
    TITLE "13:cjc019_3283"
    INDEX 01 01:01:13
  TRACK 50 AUDIO
    TITLE "0:"
    INDEX 01 01:02:30
  TRACK 51 AUDIO
    TITLE "14:cjc019_3284"
    INDEX 01 01:03:16
  TRACK 52 AUDIO
    TITLE "0:"
    INDEX 01 01:06:73
  TRACK 53 AUDIO
    TITLE "13:cjc019_3285"
    INDEX 01 01:07:55
  TRACK 54 AUDIO
    TITLE "0:"
    INDEX 01 01:08:72
  TRACK 55 AUDIO
    TITLE "14:cjc019_3286"
    INDEX 01 01:09:54
  TRACK 56 AUDIO
    TITLE "0:"
    INDEX 01 01:10:55
  TRACK 57 AUDIO
    TITLE "13:cjc019_3287"
    INDEX 01 01:11:37
  TRACK 58 AUDIO
    TITLE "0:"
    INDEX 01 01:12:60
  TRACK 59 AUDIO
    TITLE "14:cjc019_3288"
    INDEX 01 01:13:42
  TRACK 60 AUDIO
    TITLE "0:"
    INDEX 01 01:15:72
  TRACK 61 AUDIO
    TITLE "13:cjc019_3289"
    INDEX 01 01:16:56
  TRACK 62 AUDIO
    TITLE "0:"
    INDEX 01 01:18:07
  TRACK 63 AUDIO
    TITLE "14:cjc019_3290"
    INDEX 01 01:18:64
  TRACK 64 AUDIO
    TITLE "0:"
    INDEX 01 01:20:08
  TRACK 65 AUDIO
    TITLE "13:cjc019_3291"
    INDEX 01 01:20:65
  TRACK 66 AUDIO
    TITLE "0:"
    INDEX 01 01:22:09
  TRACK 67 AUDIO
    TITLE "14:cjc019_3292"
    INDEX 01 01:22:68
  TRACK 68 AUDIO
    TITLE "0:"
    INDEX 01 01:23:73
  TRACK 69 AUDIO
    TITLE "13:cjc019_3293"
    INDEX 01 01:24:53
  TRACK 70 AUDIO
    TITLE "0:"
    INDEX 01 01:26:01
  TRACK 71 AUDIO
    TITLE "14:cjc019_3294"
    INDEX 01 01:26:62
  TRACK 72 AUDIO
    TITLE "0:"
    INDEX 01 01:30:09
